<svg viewBox="0 0 1024 1024" width="1024" height="1024" x="0" y="0" xmlns="http://www.w3.org/2000/svg"><defs><pattern id="pattern" x="0" y="0" width="8" height="8" patternUnits="userSpaceOnUse"><polygon points="0,4 0,8 8,0 4,0" fill="#ffffff"></polygon><polygon points="4,8 8,8 8,4" fill="#ffffff"></polygon></pattern><mask id="grating" x="0" y="0" width="1" height="1"><rect x="0" y="0" width="100%" height="100%" fill="url(#pattern)"></rect></mask></defs><g id="horizStripes"><rect fill="#101010" height="792" width="100%" x="0" y="0"></rect><rect fill="#901C38" height="40" width="100%" x="0" y="792"></rect><rect fill="#101010" height="32" width="100%" x="0" y="832"></rect><rect fill="#901C38" height="24" width="100%" x="0" y="864"></rect><rect fill="#101010" height="16" width="100%" x="0" y="888"></rect><rect fill="#5C6428" height="8" width="100%" x="0" y="904"></rect><rect fill="#101010" height="16" width="100%" x="0" y="912"></rect><rect fill="#901C38" height="24" width="100%" x="0" y="928"></rect><rect fill="#101010" height="32" width="100%" x="0" y="952"></rect><rect fill="#901C38" height="40" width="100%" x="0" y="984"></rect></g><g id="vertStripes" mask="url(#grating)"><rect fill="#101010" height="100%" width="792" x="0" y="0"></rect><rect fill="#901C38" height="100%" width="40" x="792" y="0"></rect><rect fill="#101010" height="100%" width="32" x="832" y="0"></rect><rect fill="#901C38" height="100%" width="24" x="864" y="0"></rect><rect fill="#101010" height="100%" width="16" x="888" y="0"></rect><rect fill="#5C6428" height="100%" width="8" x="904" y="0"></rect><rect fill="#101010" height="100%" width="16" x="912" y="0"></rect><rect fill="#901C38" height="100%" width="24" x="928" y="0"></rect><rect fill="#101010" height="100%" width="32" x="952" y="0"></rect><rect fill="#901C38" height="100%" width="40" x="984" y="0"></rect></g></svg>